%TF.GenerationSoftware,KiCad,Pcbnew,8.0.3*%
%TF.CreationDate,2024-11-04T22:29:04-05:00*%
%TF.ProjectId,puzzle-piece-controller,70757a7a-6c65-42d7-9069-6563652d636f,rev?*%
%TF.SameCoordinates,Original*%
%TF.FileFunction,Copper,L2,Bot*%
%TF.FilePolarity,Positive*%
%FSLAX46Y46*%
G04 Gerber Fmt 4.6, Leading zero omitted, Abs format (unit mm)*
G04 Created by KiCad (PCBNEW 8.0.3) date 2024-11-04 22:29:04*
%MOMM*%
%LPD*%
G01*
G04 APERTURE LIST*
G04 Aperture macros list*
%AMRoundRect*
0 Rectangle with rounded corners*
0 $1 Rounding radius*
0 $2 $3 $4 $5 $6 $7 $8 $9 X,Y pos of 4 corners*
0 Add a 4 corners polygon primitive as box body*
4,1,4,$2,$3,$4,$5,$6,$7,$8,$9,$2,$3,0*
0 Add four circle primitives for the rounded corners*
1,1,$1+$1,$2,$3*
1,1,$1+$1,$4,$5*
1,1,$1+$1,$6,$7*
1,1,$1+$1,$8,$9*
0 Add four rect primitives between the rounded corners*
20,1,$1+$1,$2,$3,$4,$5,0*
20,1,$1+$1,$4,$5,$6,$7,0*
20,1,$1+$1,$6,$7,$8,$9,0*
20,1,$1+$1,$8,$9,$2,$3,0*%
G04 Aperture macros list end*
%TA.AperFunction,SMDPad,CuDef*%
%ADD10R,3.000000X3.000000*%
%TD*%
%TA.AperFunction,SMDPad,CuDef*%
%ADD11C,1.200000*%
%TD*%
%TA.AperFunction,SMDPad,CuDef*%
%ADD12R,2.400000X1.200000*%
%TD*%
%TA.AperFunction,SMDPad,CuDef*%
%ADD13R,2.532000X1.600000*%
%TD*%
%TA.AperFunction,SMDPad,CuDef*%
%ADD14R,2.283000X1.524000*%
%TD*%
%TA.AperFunction,SMDPad,CuDef*%
%ADD15R,2.283000X1.562000*%
%TD*%
%TA.AperFunction,SMDPad,CuDef*%
%ADD16R,2.537000X1.562000*%
%TD*%
%TA.AperFunction,SMDPad,CuDef*%
%ADD17R,2.537000X1.600000*%
%TD*%
%TA.AperFunction,ComponentPad*%
%ADD18R,1.700000X1.700000*%
%TD*%
%TA.AperFunction,ComponentPad*%
%ADD19O,1.700000X1.700000*%
%TD*%
%TA.AperFunction,SMDPad,CuDef*%
%ADD20RoundRect,0.250000X-0.625000X0.400000X-0.625000X-0.400000X0.625000X-0.400000X0.625000X0.400000X0*%
%TD*%
%TA.AperFunction,SMDPad,CuDef*%
%ADD21RoundRect,0.250000X-0.658910X-0.341266X0.033910X-0.741266X0.658910X0.341266X-0.033910X0.741266X0*%
%TD*%
%TA.AperFunction,SMDPad,CuDef*%
%ADD22RoundRect,0.250000X0.400000X0.625000X-0.400000X0.625000X-0.400000X-0.625000X0.400000X-0.625000X0*%
%TD*%
%TA.AperFunction,Conductor*%
%ADD23C,0.406400*%
%TD*%
G04 APERTURE END LIST*
D10*
%TO.P,U1,23*%
%TO.N,N/C*%
X220660000Y-94460000D03*
D11*
%TO.P,U1,22*%
X219430000Y-103890000D03*
%TO.P,U1,21*%
X219430000Y-101350000D03*
%TO.P,U1,20*%
X219430000Y-98810000D03*
%TO.P,U1,19*%
X216890000Y-98810000D03*
%TO.P,U1,18*%
X216890000Y-101350000D03*
%TO.P,U1,17*%
X216890000Y-103890000D03*
D12*
%TO.P,U1,16*%
X213560000Y-95410000D03*
%TO.P,U1,15*%
X213560000Y-97510000D03*
D13*
%TO.P,U1,14,5V*%
%TO.N,unconnected-(U1-5V-Pad14)_0*%
X226546000Y-102830000D03*
%TO.P,U1,13,GND*%
%TO.N,GND*%
X226546000Y-100290000D03*
%TO.P,U1,12,3V3*%
%TO.N,+3.3V*%
X226546000Y-97750000D03*
%TO.P,U1,11,PA6_A10_D10_MOSI*%
%TO.N,unconnected-(U1-PA6_A10_D10_MOSI-Pad11)*%
X226546000Y-95210000D03*
%TO.P,U1,10,PA5_A9_D9_MISO*%
%TO.N,unconnected-(U1-PA5_A9_D9_MISO-Pad10)_0*%
X226546000Y-92670000D03*
%TO.P,U1,9,PA7_A8_D8_SCK*%
%TO.N,unconnected-(U1-PA7_A8_D8_SCK-Pad9)*%
X226546000Y-90130000D03*
%TO.P,U1,8,PB09_A7_D7_RX*%
%TO.N,unconnected-(U1-PB09_A7_D7_RX-Pad8)_0*%
X226546000Y-87590000D03*
D14*
%TO.P,U1,7,PB08_A6_D6_TX*%
%TO.N,unconnected-(U1-PB08_A6_D6_TX-Pad7)*%
X209903500Y-87590000D03*
D15*
%TO.P,U1,6,PA9_A5_D5_SCL*%
%TO.N,H_SCL*%
X209903500Y-90149000D03*
D16*
%TO.P,U1,5,PA8_A4_D4_SDA*%
%TO.N,H_SDA*%
X209776500Y-92689000D03*
D17*
%TO.P,U1,4,PA11_A3_D3*%
%TO.N,unconnected-(U1-PA11_A3_D3-Pad4)*%
X209776500Y-95210000D03*
D16*
%TO.P,U1,3,PA10_A2_D2*%
%TO.N,unconnected-(U1-PA10_A2_D2-Pad3)_0*%
X209776500Y-97731000D03*
%TO.P,U1,2,PA4_A1_D1*%
%TO.N,unconnected-(U1-PA4_A1_D1-Pad2)_0*%
X209776500Y-100309000D03*
D17*
%TO.P,U1,1,PA02_A0_D0*%
%TO.N,unconnected-(U1-PA02_A0_D0-Pad1)_0*%
X209776500Y-102830000D03*
%TD*%
D18*
%TO.P,J1,1,Pin_1*%
%TO.N,H_SDA*%
X233750000Y-95325000D03*
D19*
%TO.P,J1,2,Pin_2*%
%TO.N,H_SCL*%
X233750000Y-92785000D03*
%TO.P,J1,3,Pin_3*%
%TO.N,ANALOG*%
X233750000Y-90245000D03*
%TO.P,J1,4,Pin_4*%
%TO.N,GND*%
X233750000Y-87705000D03*
%TO.P,J1,5,Pin_5*%
%TO.N,+3.3V*%
X233750000Y-85165000D03*
%TD*%
D18*
%TO.P,J6,1,Pin_1*%
%TO.N,H_SDA*%
X219130000Y-71750000D03*
D19*
%TO.P,J6,2,Pin_2*%
%TO.N,H_SCL*%
X221670000Y-71750000D03*
%TO.P,J6,3,Pin_3*%
%TO.N,GND*%
X224210000Y-71750000D03*
%TO.P,J6,4,Pin_4*%
%TO.N,+3.3V*%
X226750000Y-71750000D03*
%TD*%
D18*
%TO.P,J3,1,Pin_1*%
%TO.N,+3.3V*%
X237350000Y-85390000D03*
%TD*%
%TO.P,J4,1,Pin_1*%
%TO.N,GND*%
X237350000Y-88970000D03*
%TD*%
%TO.P,J2,1,Pin_1*%
%TO.N,ANALOG*%
X229640000Y-93660000D03*
%TD*%
D20*
%TO.P,R2,1*%
%TO.N,+3.3V*%
X220000000Y-78720000D03*
%TO.P,R2,2*%
%TO.N,H_SCL*%
X220000000Y-81820000D03*
%TD*%
D21*
%TO.P,R3,1*%
%TO.N,+3.3V*%
X228050000Y-81989999D03*
%TO.P,R3,2*%
%TO.N,ANALOG*%
X230734680Y-83540001D03*
%TD*%
D20*
%TO.P,R7,1*%
%TO.N,+3.3V*%
X224580000Y-80110000D03*
%TO.P,R7,2*%
X224580000Y-83210000D03*
%TD*%
%TO.P,R5,1*%
%TO.N,H_SCL*%
X228860000Y-76300000D03*
%TO.P,R5,2*%
X228860000Y-79400000D03*
%TD*%
%TO.P,R4,1*%
%TO.N,ANALOG*%
X229680000Y-95170000D03*
%TO.P,R4,2*%
%TO.N,GND*%
X229680000Y-98270000D03*
%TD*%
D22*
%TO.P,R1,1*%
%TO.N,+3.3V*%
X226000000Y-77040000D03*
%TO.P,R1,2*%
%TO.N,H_SDA*%
X222900000Y-77040000D03*
%TD*%
D23*
%TO.N,H_SDA*%
X222387584Y-81680000D02*
X225510000Y-81680000D01*
X225510000Y-81680000D02*
X226680000Y-82850000D01*
X231480000Y-95585400D02*
X233489600Y-95585400D01*
X226680000Y-82850000D02*
X226680000Y-84400000D01*
X226680000Y-84400000D02*
X228554600Y-86274600D01*
X228554600Y-86274600D02*
X228554600Y-88739073D01*
X233489600Y-95585400D02*
X233750000Y-95325000D01*
X228554600Y-88739073D02*
X231480000Y-91664473D01*
X231480000Y-91664473D02*
X231480000Y-95585400D01*
X208159600Y-92670000D02*
X208152400Y-92662800D01*
X208152400Y-92662800D02*
X208152400Y-78420086D01*
X208152400Y-78420086D02*
X211212886Y-75359600D01*
X216280400Y-75359600D02*
X219130000Y-72510000D01*
X211212886Y-75359600D02*
X216280400Y-75359600D01*
X210545000Y-92670000D02*
X208159600Y-92670000D01*
X219130000Y-72510000D02*
X219130000Y-71750000D01*
%TO.N,ANALOG*%
X233750000Y-90245000D02*
X235880000Y-92375000D01*
X235880000Y-92375000D02*
X235880000Y-96839510D01*
X235739755Y-96979755D02*
X231279755Y-96979755D01*
X235880000Y-96839510D02*
X235739755Y-96979755D01*
X229680000Y-95380000D02*
X229680000Y-93760000D01*
X231279755Y-96979755D02*
X229680000Y-95380000D01*
X229680000Y-93760000D02*
X229460000Y-93540000D01*
%TO.N,H_SCL*%
X233750000Y-92785000D02*
X231220000Y-90255000D01*
X221750000Y-75440000D02*
X221670000Y-75360000D01*
X231220000Y-90255000D02*
X231220000Y-89040000D01*
X229614284Y-80212080D02*
X229070000Y-79667796D01*
X222000000Y-75440000D02*
X221000000Y-75440000D01*
X229614284Y-82125716D02*
X229614284Y-80212080D01*
X213470000Y-88510000D02*
X213470000Y-84051514D01*
X229490000Y-87310000D02*
X229490000Y-84514998D01*
X210405000Y-90200000D02*
X211780000Y-90200000D01*
X229213453Y-82526547D02*
X229614284Y-82125716D01*
X229070000Y-76130000D02*
X228380000Y-75440000D01*
X229490000Y-84514998D02*
X229213453Y-84238451D01*
X229213453Y-84238451D02*
X229213453Y-82526547D01*
X213470000Y-84051514D02*
X214644870Y-82876644D01*
X218943356Y-82876644D02*
X220000000Y-81820000D01*
X229490000Y-79650000D02*
X229070000Y-79230000D01*
X216220000Y-82876644D02*
X218943356Y-82876644D01*
X221670000Y-75360000D02*
X221670000Y-71750000D01*
X214644870Y-82876644D02*
X216220000Y-82876644D01*
X211780000Y-90200000D02*
X213470000Y-88510000D01*
X228380000Y-75440000D02*
X222000000Y-75440000D01*
X231220000Y-89040000D02*
X229490000Y-87310000D01*
X221000000Y-75440000D02*
X217700527Y-75440000D01*
X216450000Y-82646644D02*
X216220000Y-82876644D01*
X222000000Y-75440000D02*
X221750000Y-75440000D01*
X216450000Y-76690527D02*
X216450000Y-82646644D01*
X217700527Y-75440000D02*
X216450000Y-76690527D01*
%TO.N,GND*%
X227344027Y-100360000D02*
X228762014Y-101777986D01*
X231879882Y-104895855D02*
X237204145Y-104895855D01*
X229520000Y-101020000D02*
X229520000Y-98320000D01*
X228762014Y-101777986D02*
X229520000Y-101020000D01*
X226570000Y-100360000D02*
X227344027Y-100360000D01*
X237204145Y-104895855D02*
X237550000Y-104550000D01*
X230838769Y-103854742D02*
X231879882Y-104895855D01*
X237550000Y-104550000D02*
X237550000Y-89750000D01*
X228762014Y-101777986D02*
X230838769Y-103854742D01*
%TO.N,ANALOG*%
X230842340Y-87337340D02*
X233750000Y-90245000D01*
X230842340Y-83475000D02*
X230842340Y-87337340D01*
%TO.N,H_SDA*%
X219012016Y-79979600D02*
X220687184Y-79979600D01*
X217650000Y-78617584D02*
X219012016Y-79979600D01*
X216080556Y-83689444D02*
X220378140Y-83689444D01*
X223080000Y-76600000D02*
X217690000Y-76600000D01*
X217650000Y-76640000D02*
X217650000Y-78617584D01*
X210405000Y-92740000D02*
X211780000Y-92740000D01*
X214820000Y-84950000D02*
X216080556Y-83689444D01*
X220378140Y-83689444D02*
X222387584Y-81680000D01*
X214820000Y-89700000D02*
X214820000Y-84950000D01*
X219130000Y-72614475D02*
X219130000Y-71750000D01*
X211780000Y-92740000D02*
X214820000Y-89700000D01*
X220687184Y-79979600D02*
X222387584Y-81680000D01*
X217690000Y-76600000D02*
X217650000Y-76640000D01*
X210405000Y-92740000D02*
X209030000Y-92740000D01*
%TO.N,+3.3V*%
X237483750Y-75973750D02*
X237483750Y-84516250D01*
X231847829Y-75599755D02*
X237109755Y-75599755D01*
X227655000Y-78145000D02*
X228240000Y-77560000D01*
X223190000Y-78720000D02*
X224580000Y-80110000D01*
X226820000Y-80587340D02*
X226820000Y-79150000D01*
X228157660Y-81925000D02*
X226820000Y-80587340D01*
X226820000Y-79150000D02*
X227655000Y-78315000D01*
X224580000Y-80110000D02*
X225860000Y-80110000D01*
X229887584Y-77560000D02*
X231847829Y-75599755D01*
X226570000Y-97820000D02*
X225195000Y-97820000D01*
X227655000Y-78315000D02*
X227655000Y-78145000D01*
X224580000Y-97205000D02*
X224580000Y-83210000D01*
X225860000Y-80110000D02*
X226820000Y-79150000D01*
X237109755Y-75599755D02*
X237483750Y-75973750D01*
X226180000Y-76600000D02*
X226180000Y-76670000D01*
X220000000Y-78720000D02*
X223190000Y-78720000D01*
X233915000Y-85000000D02*
X233750000Y-85165000D01*
X237483750Y-84516250D02*
X237000000Y-85000000D01*
X226180000Y-76670000D02*
X227655000Y-78145000D01*
X225195000Y-97820000D02*
X224580000Y-97205000D01*
X228240000Y-77560000D02*
X229887584Y-77560000D01*
%TD*%
M02*
