%TF.GenerationSoftware,KiCad,Pcbnew,8.0.3*%
%TF.CreationDate,2024-11-04T22:29:05-05:00*%
%TF.ProjectId,puzzle-piece-controller,70757a7a-6c65-42d7-9069-6563652d636f,rev?*%
%TF.SameCoordinates,Original*%
%TF.FileFunction,Profile,NP*%
%FSLAX46Y46*%
G04 Gerber Fmt 4.6, Leading zero omitted, Abs format (unit mm)*
G04 Created by KiCad (PCBNEW 8.0.3) date 2024-11-04 22:29:05*
%MOMM*%
%LPD*%
G01*
G04 APERTURE LIST*
%TA.AperFunction,Profile*%
%ADD10C,0.050000*%
%TD*%
%TA.AperFunction,Profile*%
%ADD11C,0.100000*%
%TD*%
G04 APERTURE END LIST*
D10*
X241500000Y-105750000D02*
X241500000Y-102750000D01*
X207500000Y-77750000D02*
X207500000Y-102750000D01*
X207500000Y-105750000D02*
X204500000Y-105750000D01*
X207000000Y-76250000D02*
G75*
G02*
X205000000Y-76250000I-1000000J0D01*
G01*
X205000000Y-76250000D02*
G75*
G02*
X207000000Y-76250000I1000000J0D01*
G01*
X216000000Y-74750000D02*
X216000000Y-69750000D01*
X238500000Y-102750000D02*
X238500000Y-74750000D01*
X207500000Y-74750000D02*
X204500000Y-74750000D01*
X204500000Y-105750000D02*
X204500000Y-102750000D01*
X238500000Y-105750000D02*
X241500000Y-105750000D01*
X204500000Y-77750000D02*
X207500000Y-77750000D01*
X230000000Y-74750000D02*
X238500000Y-74750000D01*
D11*
X236772000Y-79560000D02*
G75*
G02*
X230272000Y-79560000I-3250000J0D01*
G01*
X230272000Y-79560000D02*
G75*
G02*
X236772000Y-79560000I3250000J0D01*
G01*
D10*
X207000000Y-104250000D02*
G75*
G02*
X205000000Y-104250000I-1000000J0D01*
G01*
X205000000Y-104250000D02*
G75*
G02*
X207000000Y-104250000I1000000J0D01*
G01*
D11*
X215728000Y-79560000D02*
G75*
G02*
X209228000Y-79560000I-3250000J0D01*
G01*
X209228000Y-79560000D02*
G75*
G02*
X215728000Y-79560000I3250000J0D01*
G01*
D10*
X216000000Y-74750000D02*
X207500000Y-74750000D01*
X204500000Y-102750000D02*
X207500000Y-102750000D01*
D11*
X236772000Y-100940000D02*
G75*
G02*
X230272000Y-100940000I-3250000J0D01*
G01*
X230272000Y-100940000D02*
G75*
G02*
X236772000Y-100940000I3250000J0D01*
G01*
D10*
X230000000Y-69750000D02*
X230000000Y-74750000D01*
X204500000Y-74750000D02*
X204500000Y-77750000D01*
X241000000Y-104250000D02*
G75*
G02*
X239000000Y-104250000I-1000000J0D01*
G01*
X239000000Y-104250000D02*
G75*
G02*
X241000000Y-104250000I1000000J0D01*
G01*
X207500000Y-105750000D02*
X238500000Y-105750000D01*
X216000000Y-69750000D02*
X230000000Y-69750000D01*
X241500000Y-102750000D02*
X238500000Y-102750000D01*
M02*
