%TF.GenerationSoftware,KiCad,Pcbnew,8.0.3*%
%TF.CreationDate,2024-10-16T01:25:11-04:00*%
%TF.ProjectId,puzzle-piece-controller,70757a7a-6c65-42d7-9069-6563652d636f,rev?*%
%TF.SameCoordinates,Original*%
%TF.FileFunction,Copper,L2,Bot*%
%TF.FilePolarity,Positive*%
%FSLAX46Y46*%
G04 Gerber Fmt 4.6, Leading zero omitted, Abs format (unit mm)*
G04 Created by KiCad (PCBNEW 8.0.3) date 2024-10-16 01:25:11*
%MOMM*%
%LPD*%
G01*
G04 APERTURE LIST*
G04 Aperture macros list*
%AMRoundRect*
0 Rectangle with rounded corners*
0 $1 Rounding radius*
0 $2 $3 $4 $5 $6 $7 $8 $9 X,Y pos of 4 corners*
0 Add a 4 corners polygon primitive as box body*
4,1,4,$2,$3,$4,$5,$6,$7,$8,$9,$2,$3,0*
0 Add four circle primitives for the rounded corners*
1,1,$1+$1,$2,$3*
1,1,$1+$1,$4,$5*
1,1,$1+$1,$6,$7*
1,1,$1+$1,$8,$9*
0 Add four rect primitives between the rounded corners*
20,1,$1+$1,$2,$3,$4,$5,0*
20,1,$1+$1,$4,$5,$6,$7,0*
20,1,$1+$1,$6,$7,$8,$9,0*
20,1,$1+$1,$8,$9,$2,$3,0*%
G04 Aperture macros list end*
%TA.AperFunction,SMDPad,CuDef*%
%ADD10RoundRect,0.250000X-0.625000X0.400000X-0.625000X-0.400000X0.625000X-0.400000X0.625000X0.400000X0*%
%TD*%
%TA.AperFunction,ComponentPad*%
%ADD11O,1.700000X1.700000*%
%TD*%
%TA.AperFunction,ComponentPad*%
%ADD12R,1.700000X1.700000*%
%TD*%
%TA.AperFunction,SMDPad,CuDef*%
%ADD13RoundRect,1.000000X-0.375000X-0.000010X0.375000X-0.000010X0.375000X0.000010X-0.375000X0.000010X0*%
%TD*%
%TA.AperFunction,SMDPad,CuDef*%
%ADD14RoundRect,0.250000X0.400000X0.625000X-0.400000X0.625000X-0.400000X-0.625000X0.400000X-0.625000X0*%
%TD*%
%TA.AperFunction,Conductor*%
%ADD15C,0.406400*%
%TD*%
G04 APERTURE END LIST*
D10*
%TO.P,R2,1*%
%TO.N,+3.3V*%
X220000000Y-78720000D03*
%TO.P,R2,2*%
%TO.N,H_SCL*%
X220000000Y-81820000D03*
%TD*%
D11*
%TO.P,J2,5,Pin_5*%
%TO.N,+3.3V*%
X228120000Y-72250000D03*
%TO.P,J2,4,Pin_4*%
%TO.N,GND*%
X225580000Y-72250000D03*
%TO.P,J2,3,Pin_3*%
%TO.N,ANALOG*%
X223040000Y-72250000D03*
%TO.P,J2,2,Pin_2*%
%TO.N,H_SCL*%
X220500000Y-72250000D03*
D12*
%TO.P,J2,1,Pin_1*%
%TO.N,H_SDA*%
X217960000Y-72250000D03*
%TD*%
%TO.P,J1,1,Pin_1*%
%TO.N,H_SDA*%
X233750000Y-95325000D03*
D11*
%TO.P,J1,2,Pin_2*%
%TO.N,H_SCL*%
X233750000Y-92785000D03*
%TO.P,J1,3,Pin_3*%
%TO.N,ANALOG*%
X233750000Y-90245000D03*
%TO.P,J1,4,Pin_4*%
%TO.N,GND*%
X233750000Y-87705000D03*
%TO.P,J1,5,Pin_5*%
%TO.N,+3.3V*%
X233750000Y-85165000D03*
%TD*%
D10*
%TO.P,R3,1*%
%TO.N,+3.3V*%
X235240000Y-79170000D03*
%TO.P,R3,2*%
%TO.N,ANALOG*%
X235240000Y-82270000D03*
%TD*%
D13*
%TO.P,U1,1,PA02_A0_D0*%
%TO.N,unconnected-(U1-PA02_A0_D0-Pad1)*%
X210405000Y-102900000D03*
%TO.P,U1,2,PA4_A1_D1*%
%TO.N,unconnected-(U1-PA4_A1_D1-Pad2)*%
X210405000Y-100360000D03*
%TO.P,U1,3,PA10_A2_D2*%
%TO.N,unconnected-(U1-PA10_A2_D2-Pad3)*%
X210405000Y-97820000D03*
%TO.P,U1,4,PA11_A3_D3*%
%TO.N,unconnected-(U1-PA11_A3_D3-Pad4)*%
X210405000Y-95280000D03*
%TO.P,U1,5,PA8_A4_D4_SDA*%
%TO.N,H_SDA*%
X210405000Y-92740000D03*
%TO.P,U1,6,PA9_A5_D5_SCL*%
%TO.N,H_SCL*%
X210405000Y-90200000D03*
%TO.P,U1,7,PB08_A6_D6_TX*%
%TO.N,unconnected-(U1-PB08_A6_D6_TX-Pad7)*%
X210405000Y-87660000D03*
%TO.P,U1,8,PB09_A7_D7_RX*%
%TO.N,unconnected-(U1-PB09_A7_D7_RX-Pad8)*%
X226570000Y-87660000D03*
%TO.P,U1,9,PA7_A8_D8_SCK*%
%TO.N,unconnected-(U1-PA7_A8_D8_SCK-Pad9)*%
X226570000Y-90200000D03*
%TO.P,U1,10,PA5_A9_D9_MISO*%
%TO.N,unconnected-(U1-PA5_A9_D9_MISO-Pad10)*%
X226570000Y-92740000D03*
%TO.P,U1,11,PA6_A10_D10_MOSI*%
%TO.N,unconnected-(U1-PA6_A10_D10_MOSI-Pad11)*%
X226570000Y-95280000D03*
%TO.P,U1,12,3V3*%
%TO.N,+3.3V*%
X226570000Y-97820000D03*
%TO.P,U1,13,GND*%
%TO.N,GND*%
X226570000Y-100360000D03*
%TO.P,U1,14,5V*%
%TO.N,unconnected-(U1-5V-Pad14)*%
X226570000Y-102900000D03*
%TD*%
D10*
%TO.P,R7,1*%
%TO.N,+3.3V*%
X224580000Y-80110000D03*
%TO.P,R7,2*%
X224580000Y-83210000D03*
%TD*%
%TO.P,R5,1*%
%TO.N,H_SCL*%
X229070000Y-76130000D03*
%TO.P,R5,2*%
X229070000Y-79230000D03*
%TD*%
%TO.P,R4,1*%
%TO.N,ANALOG*%
X231870000Y-79040000D03*
%TO.P,R4,2*%
%TO.N,GND*%
X231870000Y-82140000D03*
%TD*%
D14*
%TO.P,R1,1*%
%TO.N,+3.3V*%
X226000000Y-77040000D03*
%TO.P,R1,2*%
%TO.N,H_SDA*%
X222900000Y-77040000D03*
%TD*%
D15*
%TO.N,+3.3V*%
X235240000Y-79170000D02*
X236750000Y-80680000D01*
X236335000Y-85165000D02*
X233750000Y-85165000D01*
X236750000Y-80680000D02*
X236750000Y-84750000D01*
X236750000Y-84750000D02*
X236335000Y-85165000D01*
%TO.N,H_SCL*%
X233750000Y-92785000D02*
X231220000Y-90255000D01*
X231220000Y-90255000D02*
X231220000Y-89040000D01*
X216450000Y-76690527D02*
X216450000Y-82646644D01*
X220000000Y-75555400D02*
X217585127Y-75555400D01*
X213470000Y-88510000D02*
X213470000Y-84051514D01*
X229070000Y-76130000D02*
X228495400Y-75555400D01*
X210405000Y-90200000D02*
X211780000Y-90200000D01*
X213470000Y-84051514D02*
X214644870Y-82876644D01*
X218943356Y-82876644D02*
X220000000Y-81820000D01*
X229490000Y-79650000D02*
X229070000Y-79230000D01*
X216220000Y-82876644D02*
X218943356Y-82876644D01*
X214644870Y-82876644D02*
X216220000Y-82876644D01*
X211780000Y-90200000D02*
X213470000Y-88510000D01*
X216450000Y-82646644D02*
X216220000Y-82876644D01*
X231220000Y-89040000D02*
X229490000Y-87310000D01*
X229490000Y-87310000D02*
X229490000Y-79650000D01*
X217585127Y-75555400D02*
X216450000Y-76690527D01*
%TO.N,GND*%
X237459704Y-100504180D02*
X237440000Y-100386100D01*
X231874027Y-104890000D02*
X232070000Y-104890000D01*
X226570000Y-100360000D02*
X227344027Y-100360000D01*
X231870000Y-85825000D02*
X233750000Y-87705000D01*
X237440000Y-91395000D02*
X233750000Y-87705000D01*
X237483750Y-100940000D02*
X237459704Y-100504180D01*
X237204145Y-104895855D02*
X237483750Y-104616250D01*
X231870000Y-82140000D02*
X231870000Y-85825000D01*
X232070000Y-104890000D02*
X232075855Y-104895855D01*
X232075855Y-104895855D02*
X237204145Y-104895855D01*
X227344027Y-100360000D02*
X231874027Y-104890000D01*
X237440000Y-100386100D02*
X237440000Y-91395000D01*
X237483750Y-104616250D02*
X237483750Y-100940000D01*
%TO.N,ANALOG*%
X231870000Y-79040000D02*
X232010000Y-79040000D01*
X232010000Y-79040000D02*
X235240000Y-82270000D01*
X230385400Y-86880400D02*
X230385400Y-80524600D01*
X230385400Y-80524600D02*
X231870000Y-79040000D01*
X233750000Y-90245000D02*
X230385400Y-86880400D01*
%TO.N,H_SDA*%
X219012016Y-79979600D02*
X220687184Y-79979600D01*
X228554600Y-88739073D02*
X231480000Y-91664473D01*
X233489600Y-95585400D02*
X233750000Y-95325000D01*
X217650000Y-78617584D02*
X219012016Y-79979600D01*
X216080556Y-83689444D02*
X220378140Y-83689444D01*
X223080000Y-76600000D02*
X217690000Y-76600000D01*
X217650000Y-76640000D02*
X217650000Y-78617584D01*
X210405000Y-92740000D02*
X211780000Y-92740000D01*
X214820000Y-84950000D02*
X216080556Y-83689444D01*
X228554600Y-84724600D02*
X228554600Y-88739073D01*
X220378140Y-83689444D02*
X222387584Y-81680000D01*
X231480000Y-95585400D02*
X233489600Y-95585400D01*
X214820000Y-89700000D02*
X214820000Y-84950000D01*
X225510000Y-81680000D02*
X228554600Y-84724600D01*
X211780000Y-92740000D02*
X214820000Y-89700000D01*
X231480000Y-91664473D02*
X231480000Y-95585400D01*
X220687184Y-79979600D02*
X222387584Y-81680000D01*
X217690000Y-76600000D02*
X217650000Y-76640000D01*
X222387584Y-81680000D02*
X225510000Y-81680000D01*
%TO.N,+3.3V*%
X223190000Y-78720000D02*
X224580000Y-80110000D01*
X224580000Y-80110000D02*
X225860000Y-80110000D01*
X225860000Y-80110000D02*
X227655000Y-78315000D01*
X226570000Y-97820000D02*
X225195000Y-97820000D01*
X233660000Y-77590000D02*
X233660000Y-77560000D01*
X227655000Y-78315000D02*
X227655000Y-78145000D01*
X224580000Y-97205000D02*
X224580000Y-83210000D01*
X226180000Y-76600000D02*
X226180000Y-76670000D01*
X233660000Y-77560000D02*
X228240000Y-77560000D01*
X220000000Y-78720000D02*
X223190000Y-78720000D01*
X228240000Y-77560000D02*
X227655000Y-78145000D01*
X226180000Y-76670000D02*
X227655000Y-78145000D01*
X225195000Y-97820000D02*
X224580000Y-97205000D01*
X235240000Y-79170000D02*
X233660000Y-77590000D01*
%TO.N,H_SCL*%
X228495400Y-75555400D02*
X220000000Y-75555400D01*
%TD*%
M02*
