%TF.GenerationSoftware,KiCad,Pcbnew,8.0.3*%
%TF.CreationDate,2024-10-14T19:06:13-04:00*%
%TF.ProjectId,puzzle-piece-controller,70757a7a-6c65-42d7-9069-6563652d636f,rev?*%
%TF.SameCoordinates,Original*%
%TF.FileFunction,Copper,L1,Top*%
%TF.FilePolarity,Positive*%
%FSLAX46Y46*%
G04 Gerber Fmt 4.6, Leading zero omitted, Abs format (unit mm)*
G04 Created by KiCad (PCBNEW 8.0.3) date 2024-10-14 19:06:13*
%MOMM*%
%LPD*%
G01*
G04 APERTURE LIST*
G04 Aperture macros list*
%AMRoundRect*
0 Rectangle with rounded corners*
0 $1 Rounding radius*
0 $2 $3 $4 $5 $6 $7 $8 $9 X,Y pos of 4 corners*
0 Add a 4 corners polygon primitive as box body*
4,1,4,$2,$3,$4,$5,$6,$7,$8,$9,$2,$3,0*
0 Add four circle primitives for the rounded corners*
1,1,$1+$1,$2,$3*
1,1,$1+$1,$4,$5*
1,1,$1+$1,$6,$7*
1,1,$1+$1,$8,$9*
0 Add four rect primitives between the rounded corners*
20,1,$1+$1,$2,$3,$4,$5,0*
20,1,$1+$1,$4,$5,$6,$7,0*
20,1,$1+$1,$6,$7,$8,$9,0*
20,1,$1+$1,$8,$9,$2,$3,0*%
G04 Aperture macros list end*
%TA.AperFunction,ComponentPad*%
%ADD10O,1.700000X1.700000*%
%TD*%
%TA.AperFunction,ComponentPad*%
%ADD11R,1.700000X1.700000*%
%TD*%
%TA.AperFunction,SMDPad,CuDef*%
%ADD12RoundRect,0.250000X-0.400000X-0.625000X0.400000X-0.625000X0.400000X0.625000X-0.400000X0.625000X0*%
%TD*%
%TA.AperFunction,SMDPad,CuDef*%
%ADD13RoundRect,0.250000X0.400000X0.625000X-0.400000X0.625000X-0.400000X-0.625000X0.400000X-0.625000X0*%
%TD*%
%TA.AperFunction,SMDPad,CuDef*%
%ADD14RoundRect,1.000000X0.375000X0.000010X-0.375000X0.000010X-0.375000X-0.000010X0.375000X-0.000010X0*%
%TD*%
%TA.AperFunction,SMDPad,CuDef*%
%ADD15RoundRect,0.250000X-0.625000X0.400000X-0.625000X-0.400000X0.625000X-0.400000X0.625000X0.400000X0*%
%TD*%
%TA.AperFunction,Conductor*%
%ADD16C,0.406400*%
%TD*%
G04 APERTURE END LIST*
D10*
%TO.P,J1,5,Pin_5*%
%TO.N,+3.3V*%
X233750000Y-85165000D03*
%TO.P,J1,4,Pin_4*%
%TO.N,GND*%
X233750000Y-87705000D03*
%TO.P,J1,3,Pin_3*%
%TO.N,ANALOG*%
X233750000Y-90245000D03*
%TO.P,J1,2,Pin_2*%
%TO.N,H_SCL*%
X233750000Y-92785000D03*
D11*
%TO.P,J1,1,Pin_1*%
%TO.N,H_SDA*%
X233750000Y-95325000D03*
%TD*%
D12*
%TO.P,R2,2*%
%TO.N,H_SCL*%
X235000000Y-81500000D03*
%TO.P,R2,1*%
%TO.N,+3.3V*%
X231900000Y-81500000D03*
%TD*%
D13*
%TO.P,R3,2*%
%TO.N,ANALOG*%
X226650000Y-79500000D03*
%TO.P,R3,1*%
%TO.N,+3.3V*%
X229750000Y-79500000D03*
%TD*%
D14*
%TO.P,U1,14,5V*%
%TO.N,unconnected-(U1-5V-Pad14)*%
X210750000Y-102750000D03*
%TO.P,U1,13,GND*%
%TO.N,GND*%
X210750000Y-100210000D03*
%TO.P,U1,12,3V3*%
%TO.N,+3.3V*%
X210750000Y-97670000D03*
%TO.P,U1,11,PA6_A10_D10_MOSI*%
%TO.N,unconnected-(U1-PA6_A10_D10_MOSI-Pad11)*%
X210750000Y-95130000D03*
%TO.P,U1,10,PA5_A9_D9_MISO*%
%TO.N,unconnected-(U1-PA5_A9_D9_MISO-Pad10)*%
X210750000Y-92590000D03*
%TO.P,U1,9,PA7_A8_D8_SCK*%
%TO.N,unconnected-(U1-PA7_A8_D8_SCK-Pad9)*%
X210750000Y-90050000D03*
%TO.P,U1,8,PB09_A7_D7_RX*%
%TO.N,unconnected-(U1-PB09_A7_D7_RX-Pad8)*%
X210750000Y-87510000D03*
%TO.P,U1,7,PB08_A6_D6_TX*%
%TO.N,unconnected-(U1-PB08_A6_D6_TX-Pad7)*%
X226915000Y-87510000D03*
%TO.P,U1,6,PA9_A5_D5_SCL*%
%TO.N,H_SCL*%
X226915000Y-90050000D03*
%TO.P,U1,5,PA8_A4_D4_SDA*%
%TO.N,H_SDA*%
X226915000Y-92590000D03*
%TO.P,U1,4,PA11_A3_D3*%
%TO.N,unconnected-(U1-PA11_A3_D3-Pad4)*%
X226915000Y-95130000D03*
%TO.P,U1,3,PA10_A2_D2*%
%TO.N,unconnected-(U1-PA10_A2_D2-Pad3)*%
X226915000Y-97670000D03*
%TO.P,U1,2,PA4_A1_D1*%
%TO.N,unconnected-(U1-PA4_A1_D1-Pad2)*%
X226915000Y-100210000D03*
%TO.P,U1,1,PA02_A0_D0*%
%TO.N,unconnected-(U1-PA02_A0_D0-Pad1)*%
X226915000Y-102750000D03*
%TD*%
D15*
%TO.P,R7,2*%
%TO.N,+3.3V*%
X220250000Y-82750000D03*
%TO.P,R7,1*%
X220250000Y-79650000D03*
%TD*%
D12*
%TO.P,R4,2*%
%TO.N,GND*%
X229750000Y-82750000D03*
%TO.P,R4,1*%
%TO.N,ANALOG*%
X226650000Y-82750000D03*
%TD*%
%TO.P,R1,2*%
%TO.N,H_SDA*%
X235800000Y-76750000D03*
%TO.P,R1,1*%
%TO.N,+3.3V*%
X232700000Y-76750000D03*
%TD*%
D16*
%TO.N,H_SCL*%
X232180000Y-92750000D02*
X232215000Y-92785000D01*
X232215000Y-92785000D02*
X233750000Y-92785000D01*
X236000000Y-90535000D02*
X233750000Y-92785000D01*
X230250000Y-91750000D02*
X231250000Y-92750000D01*
X235000000Y-82250000D02*
X236000000Y-83250000D01*
X231250000Y-92750000D02*
X232180000Y-92750000D01*
X235000000Y-81500000D02*
X235000000Y-82250000D01*
X236000000Y-83250000D02*
X236000000Y-90535000D01*
X228550000Y-90050000D02*
X230250000Y-91750000D01*
X226915000Y-90050000D02*
X228550000Y-90050000D01*
%TO.N,GND*%
X231500000Y-87000000D02*
X231500000Y-87750000D01*
X208250000Y-85000000D02*
X209500000Y-83750000D01*
X228250000Y-77000000D02*
X224250000Y-77000000D01*
X215000000Y-83750000D02*
X217625000Y-81125000D01*
X210750000Y-100210000D02*
X208460000Y-100210000D01*
X209500000Y-83750000D02*
X215000000Y-83750000D01*
X229750000Y-85250000D02*
X231500000Y-87000000D01*
X224250000Y-77000000D02*
X224250000Y-81000000D01*
X224250000Y-81000000D02*
X224125000Y-81125000D01*
X231500000Y-87750000D02*
X231545000Y-87705000D01*
X229750000Y-82750000D02*
X228250000Y-82750000D01*
X228250000Y-82750000D02*
X228250000Y-77000000D01*
X231545000Y-87705000D02*
X233750000Y-87705000D01*
X229750000Y-82750000D02*
X229750000Y-85250000D01*
X208460000Y-100210000D02*
X208250000Y-100000000D01*
X208250000Y-100000000D02*
X208250000Y-85000000D01*
X217625000Y-81125000D02*
X224125000Y-81125000D01*
%TO.N,ANALOG*%
X230495000Y-90245000D02*
X233750000Y-90245000D01*
X226750000Y-85250000D02*
X228000000Y-85250000D01*
X226650000Y-82750000D02*
X226650000Y-79500000D01*
X226650000Y-82750000D02*
X226650000Y-85150000D01*
X229750000Y-87000000D02*
X229750000Y-89500000D01*
X228000000Y-85250000D02*
X229750000Y-87000000D01*
X229750000Y-89500000D02*
X230495000Y-90245000D01*
X226650000Y-85150000D02*
X226750000Y-85250000D01*
%TO.N,H_SDA*%
X231850000Y-95250000D02*
X231925000Y-95325000D01*
X235800000Y-76750000D02*
X237000000Y-77950000D01*
X235925000Y-95325000D02*
X233750000Y-95325000D01*
X237000000Y-77950000D02*
X237000000Y-94250000D01*
X237000000Y-94250000D02*
X235925000Y-95325000D01*
X231925000Y-95325000D02*
X233750000Y-95325000D01*
X226915000Y-92590000D02*
X228590000Y-92590000D01*
X228590000Y-92590000D02*
X230000000Y-94000000D01*
X230000000Y-94000000D02*
X231250000Y-95250000D01*
X231250000Y-95250000D02*
X231850000Y-95250000D01*
%TO.N,+3.3V*%
X222750000Y-82750000D02*
X220250000Y-82750000D01*
X232000000Y-79500000D02*
X231900000Y-79600000D01*
X220250000Y-77500000D02*
X220250000Y-79650000D01*
X231900000Y-79600000D02*
X231900000Y-81500000D01*
X219750000Y-91750000D02*
X223000000Y-88500000D01*
X223000000Y-83000000D02*
X222750000Y-82750000D01*
X232000000Y-79500000D02*
X232450000Y-79050000D01*
X229750000Y-75750000D02*
X222000000Y-75750000D01*
X222000000Y-75750000D02*
X220250000Y-77500000D01*
X231750000Y-79500000D02*
X229750000Y-79500000D01*
X229750000Y-79500000D02*
X229750000Y-75750000D01*
X232450000Y-79050000D02*
X232450000Y-76750000D01*
X231900000Y-83315000D02*
X233750000Y-85165000D01*
X231750000Y-79500000D02*
X232000000Y-79500000D01*
X213750000Y-95250000D02*
X213750000Y-91750000D01*
X210750000Y-97670000D02*
X211330000Y-97670000D01*
X211330000Y-97670000D02*
X213750000Y-95250000D01*
X231900000Y-81500000D02*
X231900000Y-83315000D01*
X223000000Y-88500000D02*
X223000000Y-83000000D01*
X213750000Y-91750000D02*
X219750000Y-91750000D01*
%TD*%
M02*
