M48
; DRILL file {KiCad 8.0.3} date 2024-10-12T13:38:42-0400
; FORMAT={-:-/ absolute / metric / decimal}
; #@! TF.CreationDate,2024-10-12T13:38:42-04:00
; #@! TF.GenerationSoftware,Kicad,Pcbnew,8.0.3
; #@! TF.FileFunction,Plated,1,2,PTH
FMAT,2
METRIC
; #@! TA.AperFunction,Plated,PTH,ViaDrill
T1C0.800
; #@! TA.AperFunction,Plated,PTH,ComponentDrill
T2C1.000
%
G90
G05
T1
X157.5Y-109.75
X157.75Y-103.75
X157.75Y-107.0
X158.0Y-113.75
X165.0Y-100.0
X166.75Y-112.5
X169.0Y-107.0
X169.266Y-109.392
T2
X154.25Y-97.665
X154.25Y-100.205
X154.25Y-102.745
X154.25Y-105.285
X154.25Y-107.825
X159.95Y-90.725
X162.49Y-90.725
X165.03Y-90.725
X167.57Y-90.725
X173.25Y-97.665
X173.25Y-100.205
X173.25Y-102.745
X173.25Y-105.285
X173.25Y-107.825
M30
