%TF.GenerationSoftware,KiCad,Pcbnew,8.0.3*%
%TF.CreationDate,2024-10-12T18:44:13-04:00*%
%TF.ProjectId,puzzle-piece-pcb,70757a7a-6c65-42d7-9069-6563652d7063,rev?*%
%TF.SameCoordinates,Original*%
%TF.FileFunction,Copper,L1,Top*%
%TF.FilePolarity,Positive*%
%FSLAX46Y46*%
G04 Gerber Fmt 4.6, Leading zero omitted, Abs format (unit mm)*
G04 Created by KiCad (PCBNEW 8.0.3) date 2024-10-12 18:44:13*
%MOMM*%
%LPD*%
G01*
G04 APERTURE LIST*
G04 Aperture macros list*
%AMRoundRect*
0 Rectangle with rounded corners*
0 $1 Rounding radius*
0 $2 $3 $4 $5 $6 $7 $8 $9 X,Y pos of 4 corners*
0 Add a 4 corners polygon primitive as box body*
4,1,4,$2,$3,$4,$5,$6,$7,$8,$9,$2,$3,0*
0 Add four circle primitives for the rounded corners*
1,1,$1+$1,$2,$3*
1,1,$1+$1,$4,$5*
1,1,$1+$1,$6,$7*
1,1,$1+$1,$8,$9*
0 Add four rect primitives between the rounded corners*
20,1,$1+$1,$2,$3,$4,$5,0*
20,1,$1+$1,$4,$5,$6,$7,0*
20,1,$1+$1,$6,$7,$8,$9,0*
20,1,$1+$1,$8,$9,$2,$3,0*%
G04 Aperture macros list end*
%TA.AperFunction,SMDPad,CuDef*%
%ADD10RoundRect,0.250000X-0.625000X0.312500X-0.625000X-0.312500X0.625000X-0.312500X0.625000X0.312500X0*%
%TD*%
%TA.AperFunction,SMDPad,CuDef*%
%ADD11R,1.900000X1.000000*%
%TD*%
%TA.AperFunction,SMDPad,CuDef*%
%ADD12RoundRect,0.150000X-0.825000X-0.150000X0.825000X-0.150000X0.825000X0.150000X-0.825000X0.150000X0*%
%TD*%
%TA.AperFunction,ComponentPad*%
%ADD13R,1.700000X1.700000*%
%TD*%
%TA.AperFunction,ComponentPad*%
%ADD14O,1.700000X1.700000*%
%TD*%
%TA.AperFunction,Conductor*%
%ADD15C,0.406400*%
%TD*%
G04 APERTURE END LIST*
D10*
%TO.P,R1,1*%
%TO.N,S_SCL*%
X160500000Y-95287500D03*
%TO.P,R1,2*%
%TO.N,Net-(U1-PA4)*%
X160500000Y-98212500D03*
%TD*%
D11*
%TO.P,J3,5,Pin_5*%
%TO.N,+3.3V*%
X155900000Y-97670000D03*
%TO.P,J3,4,Pin_4*%
%TO.N,OLED_GND *%
X152600000Y-100210000D03*
%TO.P,J3,3,Pin_3*%
%TO.N,RX*%
X155900000Y-102750000D03*
%TO.P,J3,2,Pin_2*%
%TO.N,TX*%
X152600000Y-105290000D03*
%TO.P,J3,1,Pin_1*%
%TO.N,UPDI*%
X155900000Y-107830000D03*
%TD*%
%TO.P,J2,1,Pin_1*%
%TO.N,H_SDA*%
X174900000Y-107830000D03*
%TO.P,J2,2,Pin_2*%
%TO.N,H_SCL*%
X171600000Y-105290000D03*
%TO.P,J2,3,Pin_3*%
%TO.N,ANALOG*%
X174900000Y-102750000D03*
%TO.P,J2,4,Pin_4*%
%TO.N,OLED_GND *%
X171600000Y-100210000D03*
%TO.P,J2,5,Pin_5*%
%TO.N,+3.3V*%
X174900000Y-97670000D03*
%TD*%
D12*
%TO.P,U1,1,VCC*%
%TO.N,+3.3V*%
X161025000Y-102690000D03*
%TO.P,U1,2,PA4*%
%TO.N,Net-(U1-PA4)*%
X161025000Y-103960000D03*
%TO.P,U1,3,PA5*%
%TO.N,S_SDA*%
X161025000Y-105230000D03*
%TO.P,U1,4,PA6*%
%TO.N,unconnected-(U1-PA6-Pad4)*%
X161025000Y-106500000D03*
%TO.P,U1,5,PA7*%
%TO.N,unconnected-(U1-PA7-Pad5)*%
X161025000Y-107770000D03*
%TO.P,U1,6,PB3*%
%TO.N,RX*%
X161025000Y-109040000D03*
%TO.P,U1,7,PB2*%
%TO.N,TX*%
X161025000Y-110310000D03*
%TO.P,U1,8,PB1*%
%TO.N,H_SDA*%
X165975000Y-110310000D03*
%TO.P,U1,9,PB0*%
%TO.N,H_SCL*%
X165975000Y-109040000D03*
%TO.P,U1,10,~{RESET}/PA0*%
%TO.N,UPDI*%
X165975000Y-107770000D03*
%TO.P,U1,11,PA1*%
%TO.N,unconnected-(U1-PA1-Pad11)*%
X165975000Y-106500000D03*
%TO.P,U1,12,PA2*%
%TO.N,ANALOG*%
X165975000Y-105230000D03*
%TO.P,U1,13,PA3*%
%TO.N,unconnected-(U1-PA3-Pad13)*%
X165975000Y-103960000D03*
%TO.P,U1,14,GND*%
%TO.N,OLED_GND *%
X165975000Y-102690000D03*
%TD*%
D10*
%TO.P,R_10K2,1*%
%TO.N,S_SDA*%
X155750000Y-91287500D03*
%TO.P,R_10K2,2*%
%TO.N,+3.3V*%
X155750000Y-94212500D03*
%TD*%
%TO.P,R_10K1,2*%
%TO.N,+3.3V*%
X165000000Y-96962500D03*
%TO.P,R_10K1,1*%
%TO.N,S_SCL*%
X165000000Y-94037500D03*
%TD*%
D13*
%TO.P,J1,1,Pin_1*%
%TO.N,OLED_GND *%
X167550000Y-90725000D03*
D14*
%TO.P,J1,2,Pin_2*%
%TO.N,+3.3V*%
X165010000Y-90725000D03*
%TO.P,J1,3,Pin_3*%
%TO.N,S_SCL*%
X162470000Y-90725000D03*
%TO.P,J1,4,Pin_4*%
%TO.N,S_SDA*%
X159930000Y-90725000D03*
%TD*%
D15*
%TO.N,Net-(U1-PA4)*%
X162750000Y-98750000D02*
X162750000Y-104000000D01*
X160500000Y-98212500D02*
X162212500Y-98212500D01*
X162212500Y-98212500D02*
X162750000Y-98750000D01*
%TO.N,S_SCL*%
X165000000Y-94037500D02*
X161750000Y-94037500D01*
X161750000Y-94037500D02*
X160500000Y-95287500D01*
X160500000Y-95287500D02*
X160500000Y-92695000D01*
X160500000Y-92695000D02*
X162470000Y-90725000D01*
%TO.N,+3.3V*%
X158330000Y-97670000D02*
X159250000Y-96750000D01*
X159462500Y-96962500D02*
X165000000Y-96962500D01*
X155900000Y-97670000D02*
X158330000Y-97670000D01*
X159250000Y-96750000D02*
X159462500Y-96962500D01*
X165000000Y-96962500D02*
X166462500Y-96962500D01*
X166462500Y-96962500D02*
X167170000Y-97670000D01*
%TO.N,Net-(U1-PA4)*%
X162750000Y-104000000D02*
X162039999Y-104000000D01*
X162039999Y-104000000D02*
X161999999Y-103960000D01*
%TO.N,+3.3V*%
X167170000Y-97670000D02*
X167500000Y-97670000D01*
X167500000Y-97670000D02*
X174900000Y-97670000D01*
X165010000Y-91887416D02*
X167500000Y-94377416D01*
X165010000Y-90725000D02*
X165010000Y-91887416D01*
X167500000Y-94377416D02*
X167500000Y-97670000D01*
%TO.N,OLED_GND *%
X165975000Y-102690000D02*
X166310000Y-102690000D01*
X166310000Y-102690000D02*
X168790000Y-100210000D01*
X168790000Y-100210000D02*
X171600000Y-100210000D01*
X171475000Y-90725000D02*
X176500000Y-95750000D01*
X167550000Y-90725000D02*
X171475000Y-90725000D01*
X176460000Y-96290000D02*
X176460000Y-100210000D01*
X176500000Y-95750000D02*
X176500000Y-96250000D01*
X176500000Y-96250000D02*
X176460000Y-96290000D01*
%TO.N,S_SDA*%
X158000000Y-101750000D02*
X156250000Y-100000000D01*
X158000000Y-103750000D02*
X158000000Y-101750000D01*
X155560800Y-100000000D02*
X154265400Y-98704600D01*
X154265400Y-98704600D02*
X154265400Y-92772100D01*
X156250000Y-100000000D02*
X155560800Y-100000000D01*
X154265400Y-92772100D02*
X155750000Y-91287500D01*
%TO.N,Net-(U1-PA4)*%
X161999999Y-103960000D02*
X161025000Y-103960000D01*
%TO.N,S_SCL*%
X162500000Y-90755000D02*
X162470000Y-90725000D01*
%TO.N,+3.3V*%
X161025000Y-102690000D02*
X156005000Y-97670000D01*
X156005000Y-97670000D02*
X155900000Y-97670000D01*
X155900000Y-97670000D02*
X156070000Y-97500000D01*
%TO.N,OLED_GND *%
X171600000Y-100210000D02*
X176460000Y-100210000D01*
X176460000Y-100210000D02*
X176546800Y-100296800D01*
%TO.N,TX*%
X161025000Y-110310000D02*
X159060000Y-110310000D01*
X159060000Y-110310000D02*
X158250000Y-109500000D01*
X156540000Y-105290000D02*
X152600000Y-105290000D01*
X158250000Y-109500000D02*
X158250000Y-106750000D01*
X158000000Y-106750000D02*
X156540000Y-105290000D01*
X158250000Y-106750000D02*
X158000000Y-106750000D01*
%TO.N,RX*%
X155900000Y-102750000D02*
X155900000Y-102900000D01*
X155900000Y-102900000D02*
X159440400Y-106440400D01*
X159440400Y-108238794D02*
X160241606Y-109040000D01*
X160241606Y-109040000D02*
X161025000Y-109040000D01*
X159440400Y-106440400D02*
X159440400Y-108238794D01*
%TO.N,UPDI*%
X161000000Y-114500000D02*
X163750000Y-114500000D01*
X163750000Y-109020001D02*
X165000001Y-107770000D01*
X155900000Y-107830000D02*
X155900000Y-109400000D01*
X155900000Y-109400000D02*
X161000000Y-114500000D01*
X163750000Y-114500000D02*
X163750000Y-109020001D01*
X165000001Y-107770000D02*
X165975000Y-107770000D01*
%TO.N,H_SDA*%
X165975000Y-110310000D02*
X172420000Y-110310000D01*
X172420000Y-110310000D02*
X174900000Y-107830000D01*
%TO.N,H_SCL*%
X165975000Y-109040000D02*
X167850000Y-109040000D01*
X167850000Y-109040000D02*
X171600000Y-105290000D01*
%TO.N,ANALOG*%
X165975000Y-105230000D02*
X167770000Y-105230000D01*
X167770000Y-105230000D02*
X170250000Y-102750000D01*
X170250000Y-102750000D02*
X174900000Y-102750000D01*
%TO.N,S_SDA*%
X159480000Y-105230000D02*
X158000000Y-103750000D01*
X158000000Y-91287500D02*
X159367500Y-91287500D01*
X161025000Y-105230000D02*
X159480000Y-105230000D01*
X155750000Y-91287500D02*
X158000000Y-91287500D01*
%TO.N,+3.3V*%
X155750000Y-94212500D02*
X155750000Y-97520000D01*
X155750000Y-97520000D02*
X155900000Y-97670000D01*
%TO.N,S_SDA*%
X159367500Y-91287500D02*
X159930000Y-90725000D01*
%TO.N,OLED_GND *%
X152600000Y-100210000D02*
X152600000Y-102353200D01*
X152600000Y-102353200D02*
X150953200Y-104000000D01*
X150953200Y-106703200D02*
X159750000Y-115500000D01*
X150953200Y-104000000D02*
X150953200Y-106703200D01*
X176500000Y-115500000D02*
X176546800Y-115546800D01*
X159750000Y-115500000D02*
X176500000Y-115500000D01*
X176546800Y-115546800D02*
X176546800Y-100296800D01*
%TD*%
M02*
